Coordinates
version=1
nRows=29
nColumns=24
inDegrees=yes

Units are S.I. units (second, meters, Newtons, ...)
Angles are in degrees.

endheader
time	pelvis_tilt	pelvis_list	pelvis_rotation	pelvis_tx	pelvis_ty	pelvis_tz	hip_flexion_r	hip_adduction_r	hip_rotation_r	knee_angle_r	ankle_angle_r	subtalar_angle_r	mtp_angle_r	hip_flexion_l	hip_adduction_l	hip_rotation_l	knee_angle_l	ankle_angle_l	subtalar_angle_l	mtp_angle_l	lumbar_extension	lumbar_bending	lumbar_rotation
      0.55800000	     -0.19292420	      5.95143729	      0.60478588	     -0.79496756	      0.99099754	      0.23078824	     25.43385840	     -5.00255579	     -6.08981803	     -2.79138438	      7.01805910	     -4.45457650	     11.14079862	    -19.50025111	      8.63250964	      7.16379659	     -3.94980653	      8.66299312	    -13.74563925	      4.81940520	     -3.10242811	     -7.58003764	     -4.06179470
      0.56216667	     -0.20390048	      5.89859727	      0.67106007	     -0.78871418	      0.99045228	      0.23114294	     25.44698463	     -4.93878059	     -5.83163646	     -3.21336911	      7.06534877	     -4.67711963	     11.13296545	    -19.56434408	      8.52752779	      7.12659902	     -4.53998399	      8.70110643	    -13.50981713	      4.89939444	     -3.04416395	     -7.49301247	     -4.18930237
      0.56633333	     -0.18186546	      5.83788795	      0.73611080	     -0.78240666	      0.98998499	      0.23147807	     25.42351753	     -4.86946382	     -5.60109583	     -3.69271114	      7.13126909	     -4.87200901	     11.13604052	    -19.66375404	      8.41885033	      7.14263939	     -5.13438807	      8.70044192	    -13.39048625	      4.94888553	     -3.00160067	     -7.38088303	     -4.24955505
      0.57050000	     -0.20985554	      5.76793825	      0.80068912	     -0.77604708	      0.98948109	      0.23186707	     25.43398782	     -4.77919936	     -5.28865330	     -4.17783508	      7.07528809	     -5.20996962	     11.14848039	    -19.66204478	      8.29627879	      7.03658395	     -5.82056933	      8.73673904	    -13.05470555	      5.05307664	     -2.91628305	     -7.27507031	     -4.38163883
      0.57466667	     -0.20897373	      5.67719965	      0.86290505	     -0.76963109	      0.98905416	      0.23225167	     25.40070135	     -4.66741313	     -5.01124707	     -4.67919482	      6.94391438	     -5.55047445	     11.17363576	    -19.67112954	      8.15171774	      6.89116375	     -6.54550305	      8.73888314	    -12.70502179	      5.20015017	     -2.85094973	     -7.13592822	     -4.47031331
      0.57883333	     -0.21367029	      5.58465719	      0.92523545	     -0.76317315	      0.98865012	      0.23263918	     25.37071712	     -4.55166330	     -4.74146058	     -5.21147102	      6.76760158	     -5.89903239	     11.20929666	    -19.65647420	      8.00760472	      6.75012103	     -7.30282210	      8.70883059	    -12.38875106	      5.37293041	     -2.77318838	     -6.99758821	     -4.54974832
      0.58300000	     -0.19022715	      5.46690046	      0.99321293	     -0.75665169	      0.98833272	      0.23304464	     25.28118972	     -4.40919244	     -4.49950651	     -5.71741036	      6.48184074	     -6.26686163	     11.29266962	    -19.63944901	      7.82708259	      6.52669855	     -8.12157878	      8.63818534	    -11.95437380	      5.73427480	     -2.71709860	     -6.82798148	     -4.60138798
      0.58716667	     -0.20745243	      5.38015575	      1.02566033	     -0.75013410	      0.98794387	      0.23348899	     25.28041164	     -4.28278589	     -4.19193479	     -6.32863838	      6.27904619	     -6.65213360	     11.34628740	    -19.57627519	      7.70149411	      6.37342213	     -8.93923832	      8.52862848	    -11.71811739	      5.95619614	     -2.61145296	     -6.69500872	     -4.68366193
      0.59133333	     -0.21548597	      5.25229764	      1.08662067	     -0.74354258	      0.98764599	      0.23392104	     25.22249740	     -4.12200036	     -3.95246781	     -6.87317117	      5.89275627	     -7.06940078	     11.41708966	    -19.47434235	      7.51496089	      6.13067861	     -9.85146040	      8.40996028	    -11.30983987	      6.25334333	     -2.50776517	     -6.50982180	     -4.73586287
      0.59550000	     -0.19496850	      5.14014345	      1.12641988	     -0.73696591	      0.98738284	      0.23438125	     25.17364228	     -3.97656091	     -3.77344450	     -7.50734914	      5.60230964	     -7.32977235	     12.94857042	    -19.36159875	      7.34049350	      5.77762810	    -10.82244653	      8.22032786	    -10.87419630	     12.44851290	     -2.44218760	     -6.35074599	     -4.71247208
      0.59966667	     -0.19738681	      5.00857795	      1.16775529	     -0.73032151	      0.98715785	      0.23485690	     25.10291251	     -3.79990826	     -3.50604477	     -8.06195620	      5.14425840	     -7.82423627	     12.93838700	    -19.23322353	      7.15769886	      5.55975411	    -11.77822759	      7.93051607	    -10.62563322	     12.50927700	     -2.33129547	     -6.16124344	     -4.81219964
      0.60383333	     -0.18897981	      4.88219117	      1.20542175	     -0.72371323	      0.98696090	      0.23536560	     25.03895445	     -3.62891191	     -3.27853653	     -8.66119717	      4.75923667	     -8.23517832	     12.94179579	    -19.04959516	      6.96754059	      5.21954124	    -12.86131364	      7.72502522	    -10.17646935	     12.65206305	     -2.24619977	     -5.98687932	     -4.82213723
      0.60800000	     -0.18218652	      4.75150228	      1.23126754	     -0.71709671	      0.98679373	      0.23589272	     24.98966330	     -3.45220209	     -3.08357669	     -9.29158269	      4.34198522	     -8.59496320	     12.95509039	    -18.83676373	      6.77407673	      4.86853420	    -13.98378509	      7.45696627	     -9.74440911	     12.86207253	     -2.15316868	     -5.80176425	     -4.83321732
      0.61216667	     -0.16515349	      4.61509657	      1.24580594	     -0.71048049	      0.98665596	      0.23644272	     24.94194458	     -3.26750432	     -2.91249631	     -9.95286983	      3.91908706	     -8.94098041	     12.97765692	    -18.60091379	      6.57047476	      4.47330031	    -15.16604748	      7.14779653	     -9.27878786	     13.17265008	     -2.07290608	     -5.60633736	     -4.82749121
      0.61633333	     -0.09108654	      4.46007475	      1.25817564	     -0.70387238	      0.98665060	      0.23703140	     24.80902336	     -3.06178164	     -2.75299306	    -10.56864727	      3.48354748	     -9.25486245	     13.04021167	    -18.38677419	      6.32650089	      3.99722889	    -16.40108675	      6.75501830	     -8.70574406	     14.01651626	     -2.06898837	     -5.40184341	     -4.80774652
      0.62050000	     -0.14294088	      4.34321015	      1.26228069	     -0.69729922	      0.98645642	      0.23760407	     24.87368078	     -2.89963934	     -2.61629933	    -11.31260334	      3.12797839	     -9.51965925	     13.06562534	    -18.00134363	      6.14608734	      3.62535252	    -17.70930617	      6.35910225	     -8.37952844	     14.46695877	     -1.89819075	     -5.22942416	     -4.78852244
      0.62466667	     -0.11792961	      4.19611805	      1.25601748	     -0.69072113	      0.98644629	      0.23824168	     24.80623599	     -2.69579976	     -2.44822004	    -11.95313847	      2.69535625	     -9.82660055	     13.36796099	    -17.67032669	      5.90947040	      3.16220619	    -19.02516840	      5.72896235	     -8.06415718	     21.26706728	     -1.82510100	     -5.03622339	     -4.76828339
      0.62883333	     -0.11018805	      4.06390438	      1.24399724	     -0.68420109	      0.98638786	      0.23886529	     24.81703186	     -2.52101030	     -2.38451094	    -12.72405625	      2.44691657	     -9.89820179	     13.35890316	    -17.27114495	      5.68545412	      2.68605277	    -20.44477016	      5.21199058	     -7.61938743	     21.33207303	     -1.73670071	     -4.85014550	     -4.71461247
      0.63300000	     -0.10421319	      3.92996415	      1.22916818	     -0.67770892	      0.98638516	      0.23952426	     24.80355885	     -2.33761209	     -2.27608305	    -13.43774495	      2.16933942	    -10.03506633	     13.34524617	    -16.83216677	      5.45226742	      2.21995938	    -21.91169198	      4.59770102	     -7.23269476	     21.42828224	     -1.64247859	     -4.67597200	     -4.67051964
      0.63716667	     -0.07680814	      3.78882943	      1.20622369	     -0.67129212	      0.98639878	      0.24020097	     24.79694749	     -2.14751149	     -2.20320375	    -14.21262414	      1.92333968	    -10.20127264	     13.31908491	    -16.37780762	      5.19961601	      1.73206550	    -23.44122886	      4.01534148	     -6.79149895	     21.60684710	     -1.59637077	     -4.47758052	     -4.60610313
      0.64133333	     -0.06132873	      3.65185576	      1.18125083	     -0.66490768	      0.98644190	      0.24089720	     24.79178068	     -1.96108598	     -2.12998775	    -14.96462923	      1.72503455	    -10.31211896	     13.28435129	    -15.87612891	      4.94288825	      1.25099995	    -25.00937715	      3.34414485	     -6.41399281	     21.82331265	     -1.53147648	     -4.29414188	     -4.54368957
      0.64550000	     -0.00740860	      3.49640578	      1.17538337	     -0.65858116	      0.98656872	      0.24159825	     24.72284395	     -1.75997103	     -2.07208501	    -15.67728493	      1.58796905	    -10.46048143	     13.18493211	    -15.37903298	      4.64551868	      0.78748615	    -26.62854415	      2.64020618	     -6.00670686	     22.35727053	     -1.52212536	     -4.09621873	     -4.45759535
      0.64966667	     -0.01848337	      3.37977780	      1.11671039	     -0.65231996	      0.98659106	      0.24233220	     24.77083338	     -1.58826816	     -2.00460919	    -16.46695911	      1.46741853	    -10.45213309	     13.13523251	    -14.79021817	      4.41224437	      0.33321446	    -28.26806712	      1.88776060	     -5.79209763	     22.59079571	     -1.43413291	     -3.93500328	     -4.40572684
      0.65383333	      0.01239041	      3.24083085	      1.08070876	     -0.64609436	      0.98672057	      0.24307199	     24.72888940	     -1.39702782	     -1.94644199	    -17.17324611	      1.41294627	    -10.46973446	     13.08587395	    -14.21760525	      4.12937679	     -0.11537280	    -29.93841028	      1.08255136	     -5.55808738	     22.78862467	     -1.39493349	     -3.76230954	     -4.33657412
      0.65800000	      0.03777677	      3.10289176	      1.04673298	     -0.63994888	      0.98685868	      0.24380690	     24.69656084	     -1.20838789	     -1.90621383	    -17.88615728	      1.38563967	    -10.49862510	     13.03036612	    -13.60707856	      3.84584147	     -0.52365896	    -31.64521457	      0.27683871	     -5.37602508	     22.97134407	     -1.36795516	     -3.58517787	     -4.26312146
      0.66216667	      0.04906104	      2.97636536	      1.01062543	     -0.63388463	      0.98698271	      0.24453742	     24.68401433	     -1.03251038	     -1.87820549	    -18.60372534	      1.37734754	    -10.53850721	     12.94523307	    -12.95221790	      3.57254325	     -0.90264397	    -33.38398998	     -0.50254010	     -5.21968383	     23.19905181	     -1.33660406	     -3.40590028	     -4.18106368
      0.66633333	      0.08580647	      2.83562517	      0.98096462	     -0.62784820	      0.98719454	      0.24527614	     24.59961962	     -0.84007834	     -1.84649118	    -19.23329057	      1.42790327	    -10.53072934	     12.87860459	    -12.30923440	      3.27562751	     -1.26192814	    -35.12119498	     -1.31937705	     -5.16952757	     23.33966045	     -1.32800305	     -3.24409665	     -4.11461806
      0.67050000	      0.10786681	      2.71068282	      0.95050577	     -0.62189916	      0.98739628	      0.24599588	     24.53604686	     -0.66618102	     -1.83230970	    -19.86794179	      1.49063825	    -10.54049160	     12.80133818	    -11.62673639	      2.99841724	     -1.58629654	    -36.87374074	     -2.09382234	     -5.15798357	     23.45850653	     -1.31522721	     -3.07692986	     -4.04263205
      0.67466667	      0.12808165	      2.57956793	      0.92094521	     -0.61601342	      0.98761288	      0.24672498	     24.45927055	     -0.48262869	     -1.81500726	    -20.47144777	      1.57667432	    -10.54809374	     12.71187600	    -10.92552220	      2.71671360	     -1.86947865	    -38.62930797	     -2.84634827	     -5.20974165	     23.54713533	     -1.31406446	     -2.91562148	     -3.96921334
